<svg width="192" height="192" viewBox="0 0 192 192" fill="none" xmlns="http://www.w3.org/2000/svg">
  <!-- 背景円 -->
  <circle cx="96" cy="96" r="88" fill="#1976d2"/>
  
  <!-- 本のベース -->
  <rect x="48" y="64" width="80" height="64" rx="4" fill="#ffffff" stroke="#1976d2" stroke-width="2"/>
  
  <!-- 本のページ（複数枚重ねた表現） -->
  <rect x="52" y="68" width="72" height="56" rx="2" fill="#f5f5f5"/>
  <rect x="56" y="72" width="64" height="48" rx="2" fill="#ffffff"/>
  
  <!-- 本のタイトルライン -->
  <rect x="64" y="84" width="48" height="2" fill="#1976d2"/>
  <rect x="64" y="90" width="32" height="2" fill="#1976d2"/>
  <rect x="64" y="96" width="40" height="2" fill="#1976d2"/>
  
  <!-- メモ用の付箋 -->
  <rect x="100" y="80" width="32" height="40" fill="#ffeb3b" stroke="#f57f17" stroke-width="1"/>
  <polygon points="100,80 108,72 132,72 132,120 100,120" fill="#ffeb3b"/>
  
  <!-- メモのテキストライン -->
  <rect x="104" y="88" width="24" height="1.5" fill="#333333"/>
  <rect x="104" y="92" width="20" height="1.5" fill="#333333"/>
  <rect x="104" y="96" width="22" height="1.5" fill="#333333"/>
  <rect x="104" y="100" width="18" height="1.5" fill="#333333"/>
  <rect x="104" y="104" width="24" height="1.5" fill="#333333"/>
  
  <!-- ペン -->
  <rect x="110" y="110" width="2" height="8" fill="#333333"/>
  <polygon points="110,110 112,108 114,110 112,112" fill="#333333"/>
  
  <!-- 装飾的な要素 -->
  <circle cx="140" cy="60" r="6" fill="#ff9800" opacity="0.8"/>
  <circle cx="52" cy="140" r="4" fill="#4caf50" opacity="0.8"/>
</svg>
